<?xml version="1.0" encoding="utf-8"?>
<!-- Generator: Adobe Illustrator 26.0.3, SVG Export Plug-In . SVG Version: 6.00 Build 0)  -->
<svg version="1.1"  xmlns="http://www.w3.org/2000/svg" xmlns:xlink="http://www.w3.org/1999/xlink" x="0px" y="0px"
	 viewBox="0 0 100 100" style="enable-background:new 0 0 100 100;" fill="#777777" xml:space="preserve">
<path d="M50,0C22.4,0,0,22.4,0,50c0,27.6,22.4,50,50,50s50-22.4,50-50C100,22.4,77.6,0,50,0z M52,93.9C27.8,93.9,8.1,74.3,8.1,50
	c0,0,0,0,0,0s0,0,0,0c0-0.1,0-0.1,0-0.2C8.2,25.6,27.8,6.1,52,6.1C76.3,6.1,96,25.7,96,50S76.3,93.9,52,93.9z"/>
</svg>
